<svg width="25" height="24" viewBox="0 0 25 24" fill="none" xmlns="http://www.w3.org/2000/svg">
<path d="M11.7 18.35L8.15 14.8L9.6 13.35L11.7 15.45L15.9 11.25L17.35 12.7L11.7 18.35ZM5.75 22C5.2 22 4.72917 21.8042 4.3375 21.4125C3.94583 21.0208 3.75 20.55 3.75 20V6C3.75 5.45 3.94583 4.97917 4.3375 4.5875C4.72917 4.19583 5.2 4 5.75 4H6.75V2H8.75V4H16.75V2H18.75V4H19.75C20.3 4 20.7708 4.19583 21.1625 4.5875C21.5542 4.97917 21.75 5.45 21.75 6V20C21.75 20.55 21.5542 21.0208 21.1625 21.4125C20.7708 21.8042 20.3 22 19.75 22H5.75ZM5.75 20H19.75V10H5.75V20ZM5.75 8H19.75V6H5.75V8Z" fill="#5F6368"/>
</svg>
