<svg width="30" height="31" viewBox="0 0 30 31" fill="none" xmlns="http://www.w3.org/2000/svg">
<path d="M15 15.5C15.6875 15.5 16.276 15.2552 16.7656 14.7656C17.2552 14.276 17.5 13.6875 17.5 13C17.5 12.3125 17.2552 11.724 16.7656 11.2344C16.276 10.7448 15.6875 10.5 15 10.5C14.3125 10.5 13.724 10.7448 13.2344 11.2344C12.7448 11.724 12.5 12.3125 12.5 13C12.5 13.6875 12.7448 14.276 13.2344 14.7656C13.724 15.2552 14.3125 15.5 15 15.5ZM15 24.6875C17.5417 22.3542 19.4271 20.2344 20.6562 18.3281C21.8854 16.4219 22.5 14.7292 22.5 13.25C22.5 10.9792 21.776 9.11979 20.3281 7.67188C18.8802 6.22396 17.1042 5.5 15 5.5C12.8958 5.5 11.1198 6.22396 9.67188 7.67188C8.22396 9.11979 7.5 10.9792 7.5 13.25C7.5 14.7292 8.11458 16.4219 9.34375 18.3281C10.5729 20.2344 12.4583 22.3542 15 24.6875ZM15 28C11.6458 25.1458 9.14062 22.4948 7.48438 20.0469C5.82812 17.599 5 15.3333 5 13.25C5 10.125 6.00521 7.63542 8.01562 5.78125C10.026 3.92708 12.3542 3 15 3C17.6458 3 19.974 3.92708 21.9844 5.78125C23.9948 7.63542 25 10.125 25 13.25C25 15.3333 24.1719 17.599 22.5156 20.0469C20.8594 22.4948 18.3542 25.1458 15 28Z" fill="#5F6368"/>
</svg>
