<svg width="25" height="24" viewBox="0 0 25 24" fill="none" xmlns="http://www.w3.org/2000/svg">
<path d="M12.25 20.9984L10.8 19.6984C9.11667 18.1818 7.725 16.8734 6.625 15.7734C5.525 14.6734 4.65 13.6859 4 12.8109C3.35 11.9359 2.89583 11.1318 2.6375 10.3984C2.37917 9.6651 2.25 8.9151 2.25 8.14844C2.25 6.58177 2.775 5.27344 3.825 4.22344C4.875 3.17344 6.18333 2.64844 7.75 2.64844C8.61667 2.64844 9.44167 2.83177 10.225 3.19844C11.0083 3.5651 11.6833 4.08177 12.25 4.74844C12.8167 4.08177 13.4917 3.5651 14.275 3.19844C15.0583 2.83177 15.8833 2.64844 16.75 2.64844C18.3167 2.64844 19.625 3.17344 20.675 4.22344C21.725 5.27344 22.25 6.58177 22.25 8.14844C22.25 8.9151 22.1208 9.6651 21.8625 10.3984C21.6042 11.1318 21.15 11.9359 20.5 12.8109C19.85 13.6859 18.975 14.6734 17.875 15.7734C16.775 16.8734 15.3833 18.1818 13.7 19.6984L12.25 20.9984ZM12.25 18.2984C13.85 16.8651 15.1667 15.6359 16.2 14.6109C17.2333 13.5859 18.05 12.6943 18.65 11.9359C19.25 11.1776 19.6667 10.5026 19.9 9.91094C20.1333 9.31927 20.25 8.73177 20.25 8.14844C20.25 7.14844 19.9167 6.3151 19.25 5.64844C18.5833 4.98177 17.75 4.64844 16.75 4.64844C15.9667 4.64844 15.2417 4.86927 14.575 5.31094C13.9083 5.7526 13.45 6.3151 13.2 6.99844H11.3C11.05 6.3151 10.5917 5.7526 9.925 5.31094C9.25833 4.86927 8.53333 4.64844 7.75 4.64844C6.75 4.64844 5.91667 4.98177 5.25 5.64844C4.58333 6.3151 4.25 7.14844 4.25 8.14844C4.25 8.73177 4.36667 9.31927 4.6 9.91094C4.83333 10.5026 5.25 11.1776 5.85 11.9359C6.45 12.6943 7.26667 13.5859 8.3 14.6109C9.33333 15.6359 10.65 16.8651 12.25 18.2984Z" fill="#5F6368"/>
</svg>
